:SAMPLES-PER-SECOND 30
:FULLY-SPECIFIED
:DEGREES
548
root  -45.564 39.6594 -3.9207 178.074 -50.423 176.031
RightUpLeg  -3.85047 -4.40339 5.22589
RightLeg  18.7806 1.06202 0.0396351
RightFoot  -9.59809 0.0902757 -10.1598
RightToes  -1.74624e-010 0 -3.6325e-017
Spine  7.37172 1.94746 12.6397
Spine1  5.42526 3.94693 -4.09565
HEad  -21.5859 -31.0564 0.710702
LeftShoulder1  -0.513946 4.78812 -33.8431
LeftArm  1.73387 11.5878 -40.5404
LeftForeArm  34.9316 -12.5942 -8.08604
LeftHand  -0.0734467 6.95371 -2.37171
RightShoulder  -0.647303 -5.34579 28.4727
RightArm  12.0078 13.5037 41.7899
RightForeArm  11.1676 20.677 4.17402
RightHand  -0.47674 7.78857 -4.55623
LeftUpLeg  -17.0725 0.274439 3.43893
LeftLeg  37.1425 2.69824 2.63062
LeftFoot  -1.09131 -0.220737 2.54228
LeftToes  -3.96543e-010 8.93632e-011 -2.58531e-011
549
root  -46.4746 39.7632 -4.27427 178.956 -47.1204 175.559
RightUpLeg  -2.8035 -3.46207 4.48132
RightLeg  18.627 3.4715 0.252966
RightFoot  -10.3355 0.0191498 -10.0503
RightToes  -1.74624e-010 0 -3.6325e-017
Spine  7.45528 2.5453 13.8392
Spine1  5.05976 5.00276 -6.40478
HEad  -22.2419 -31.3051 0.924703
LeftShoulder1  -0.447871 4.653 -32.8488
LeftArm  1.09015 13.8686 -40.5631
LeftForeArm  34.1171 -13.5513 -7.40456
LeftHand  -0.0859818 6.91974 -3.28746
RightShoulder  -0.564042 -5.15464 27.379
RightArm  7.81986 19.5176 39.6471
RightForeArm  11.9696 23.3072 4.3561
RightHand  -0.64612 7.81103 -6.03707
LeftUpLeg  -15.3503 1.42019 2.86974
LeftLeg  24.6241 1.02887 0.881941
LeftFoot  -1.90437 0.0735447 -0.8423
LeftToes  -3.96543e-010 8.93632e-011 -2.58531e-011
550
root  -47.3296 39.7558 -4.65017 179.261 -45.0744 175.171
RightUpLeg  -1.94983 -2.02411 3.57182
RightLeg  19.7183 4.02552 0.630543
RightFoot  -11.7637 -0.113865 -9.51522
RightToes  -1.74624e-010 0 -3.6325e-017
Spine  7.26704 2.70223 13.7386
Spine1  5.73234 5.26978 -7.16066
HEad  -23.3193 -31.6029 0.99671
LeftShoulder1  -0.411155 4.56654 -32.4982
LeftArm  1.00361 14.8912 -40.1441
LeftForeArm  32.0565 -14.0562 -7.10485
LeftHand  -0.0658481 6.77146 -2.27228
RightShoulder  -0.419192 -4.81616 24.9803
RightArm  0.368295 25.8596 37.5493
RightForeArm  16.037 26.4401 4.82324
RightHand  -0.776934 8.1601 -7.01263
LeftUpLeg  -13.2336 3.39787 1.67679
LeftLeg  14.4332 -1.2632 -0.191125
LeftFoot  -1.72822 0.560078 -6.42973
LeftToes  -3.96543e-010 8.93632e-011 -2.58531e-011
551
root  -48.0894 39.705 -5.01854 179.543 -44.1725 173.933
RightUpLeg  -1.16791 -0.963113 1.78401
RightLeg  22.0859 3.75549 1.43309
RightFoot  -13.5048 -0.258743 -8.82747
RightToes  -1.74624e-010 0 -3.6325e-017
Spine  8.33356 2.40341 12.0473
Spine1  5.60633 5.02219 -7.71401
HEad  -23.6642 -32.4183 1.25329
LeftShoulder1  -0.29719 4.29075 -31.6738
LeftArm  2.16381 15.3611 -39.6291
LeftForeArm  29.9886 -14.1301 -7.30081
LeftHand  -0.0650547 7.21296 -1.47151
RightShoulder  -0.26218 -4.38647 22.5029
RightArm  -8.22547 31.3332 34.188
RightForeArm  19.5014 30.4489 5.56062
RightHand  -0.901723 9.3804 -7.45595
LeftUpLeg  -11.6814 5.30562 -0.453626
LeftLeg  9.99377 -2.24824 -0.818807
LeftFoot  2.18445 0.412092 -3.89799
LeftToes  -3.96543e-010 8.93632e-011 -2.58531e-011
552
root  -48.8031 39.4589 -5.36263 -179.892 -44.1162 172.443
RightUpLeg  -2.85641 -3.13915 -0.594325
RightLeg  29.1158 5.73236 3.27176
RightFoot  -14.912 -0.320309 -7.32489
RightToes  -1.74624e-010 0 -3.6325e-017
Spine  10.0789 2.11013 9.26057
Spine1  4.6779 4.39509 -7.03507
HEad  -23.7122 -34.1501 1.86833
LeftShoulder1  -0.324397 4.367 -31.4392
LeftArm  2.43569 14.8062 -39.0118
LeftForeArm  29.916 -14.0048 -7.41958
LeftHand  -0.0486302 6.56335 -1.09868
RightShoulder  -0.187561 -4.19658 19.5122
RightArm  -17.8911 35.8481 29.8419
RightForeArm  23.1249 35.5496 6.64495
RightHand  -1.04955 9.69027 -8.43903
LeftUpLeg  -11.9443 4.77216 -2.34724
LeftLeg  13.2117 -2.08824 -0.849631
LeftFoot  4.16559 -0.380755 2.69877
LeftToes  -3.96543e-010 8.93632e-011 -2.58531e-011
553
root  -49.4718 39.0734 -5.7134 -179.594 -44.338 170.794
RightUpLeg  -6.79731 -5.32241 -3.5429
RightLeg  41.013 7.95142 7.1331
RightFoot  -14.0832 -0.163573 -1.5787
RightToes  -1.74624e-010 0 -3.6325e-017
Spine  12.2897 1.91276 7.56278
Spine1  3.98039 4.15986 -7.48033
HEad  -24.8542 -37.2558 3.58724
LeftShoulder1  -0.172501 3.97158 -30.6298
LeftArm  2.16161 14.0419 -39.0444
LeftForeArm  30.3754 -15.3368 -6.58737
LeftHand  -0.051905 6.51197 -1.24065
RightShoulder  -0.151475 -4.13228 16.8117
RightArm  -28.6421 38.4869 23.9123
RightForeArm  26.1934 41.95 8.34012
RightHand  -1.2734 10.7223 -9.53704
LeftUpLeg  -12.6707 5.47162 -3.93554
LeftLeg  18.8561 -2.78569 -0.860104
LeftFoot  0.44407 -0.174503 1.66498
LeftToes  -3.96543e-010 8.93632e-011 -2.58531e-011
